<?xml version="1.0" encoding="UTF-8"?>
<svg width="20px" height="20px" viewBox="0 0 20 20" version="1.1" xmlns="http://www.w3.org/2000/svg" xmlns:xlink="http://www.w3.org/1999/xlink">
    <title>ss/搜索/描边备份</title>
    <g id="页面-1" stroke="none" stroke-width="1" fill="none" fill-rule="evenodd">
        <g id="新闻定" transform="translate(-1433.000000, -18.000000)" fill="#626F69" fill-rule="nonzero">
            <g id="ss/搜索/描边备份" transform="translate(1433.000000, 18.000000)">
                <rect id="矩形" opacity="0" x="0" y="0" width="20" height="20"></rect>
                <path d="M12.2,13.08625 C9.73758838,15.0779853 6.14698782,14.7938787 4.02844902,12.4396752 C1.90991021,10.0854718 2.00469995,6.48489635 4.24417315,4.24542315 C6.48364635,2.00594995 10.0842218,1.91116021 12.4384252,4.02969902 C14.7926287,6.14823782 15.0767353,9.73883838 13.085,12.20125 L17.5,16.6125 L16.615,17.49875 L12.2,13.085 L12.2,13.08625 Z M13.15875,8.455 C13.1864418,6.75646094 12.296137,5.17496062 10.8296008,4.31759651 C9.36306452,3.4602324 7.54818548,3.4602324 6.08164923,4.31759651 C4.61511299,5.17496062 3.72480817,6.75646094 3.7525,8.455 C3.79435998,11.0225731 5.8877107,13.0820734 8.455625,13.0820734 C11.0235393,13.0820734 13.11689,11.0225731 13.15875,8.455 L13.15875,8.455 Z" id="形状"></path>
            </g>
        </g>
    </g>
</svg>